<?xml version="1.0" standalone="no"?>
<!DOCTYPE svg PUBLIC "-//W3C//DTD SVG 20010904//EN"
 "http://www.w3.org/TR/2001/REC-SVG-20010904/DTD/svg10.dtd">
<svg version="1.0" xmlns="http://www.w3.org/2000/svg"
 width="842.000000pt" height="842.000000pt" viewBox="0 0 842.000000 842.000000"
 preserveAspectRatio="xMidYMid meet">
<metadata>
Created by potrace 1.11, written by Peter Selinger 2001-2013
</metadata>
<g transform="translate(0.000000,842.000000) scale(0.100000,-0.100000)"
fill="#000000" stroke="none">
<path d="M3952 7778 c-11 -18 -25 -50 -32 -71 -6 -21 -23 -45 -37 -54 -83 -55
-148 -144 -236 -325 -80 -165 -89 -176 -176 -203 -63 -20 -118 -65 -150 -125
-17 -32 -44 -68 -59 -79 -16 -11 -43 -48 -61 -83 -31 -58 -79 -129 -105 -153
-6 -5 -31 -36 -55 -68 -72 -94 -184 -205 -356 -351 -136 -116 -269 -258 -299
-321 -15 -33 -43 -76 -61 -97 -28 -31 -65 -88 -70 -108 -1 -3 -7 -18 -13 -33
-7 -16 -12 -34 -12 -41 0 -6 -4 -16 -9 -21 -5 -6 -14 -28 -21 -50 -23 -71 -76
-168 -159 -285 -45 -63 -81 -119 -81 -126 0 -17 -63 -99 -139 -180 -76 -82
-147 -189 -225 -337 -31 -60 -71 -128 -89 -152 -19 -24 -53 -84 -77 -134 -40
-82 -45 -89 -63 -79 -11 6 -70 11 -131 12 -129 2 -184 21 -232 81 -36 45 -102
59 -134 30 -10 -9 -38 -18 -63 -19 -24 -2 -49 -6 -55 -10 -19 -12 -25 -77 -12
-128 10 -43 10 -55 -4 -93 -25 -64 -40 -73 -139 -82 -40 -4 -50 -10 -62 -33
-8 -16 -15 -36 -15 -45 0 -13 -6 -15 -33 -9 -74 16 -187 -9 -226 -50 -47 -50
-23 -187 42 -239 22 -16 42 -40 47 -51 7 -20 -5 -69 -22 -91 -49 -63 -53 -66
-103 -70 -55 -4 -94 -36 -96 -78 -3 -75 -19 -110 -86 -202 -34 -46 -37 -56
-40 -124 -2 -87 5 -105 44 -108 98 -6 161 -26 145 -46 -28 -36 -36 -130 -16
-191 26 -80 37 -91 92 -92 26 -1 65 -6 87 -11 22 -6 66 -9 97 -7 l57 3 -3 -42
c-2 -23 -7 -50 -11 -59 -5 -14 3 -22 39 -40 45 -22 46 -22 103 -4 32 10 75 26
96 36 l38 19 -7 -22 c-25 -76 -41 -191 -38 -277 5 -165 32 -251 138 -445 35
-64 149 -200 236 -280 153 -142 390 -302 590 -397 123 -59 232 -108 239 -108
4 0 26 -9 49 -20 22 -11 46 -20 52 -20 5 0 18 -4 28 -9 14 -8 44 -20 62 -26 3
-1 77 -24 165 -53 213 -69 541 -151 700 -176 17 -3 71 -12 120 -20 50 -8 108
-17 130 -20 22 -3 56 -8 75 -11 65 -10 115 -16 155 -20 114 -10 183 -17 215
-20 118 -13 307 -19 610 -20 374 0 505 6 775 35 50 5 117 12 150 16 33 3 69 8
80 10 10 2 37 6 60 9 22 3 65 10 95 15 30 5 71 11 90 14 19 3 46 8 60 11 14 3
50 9 80 15 30 6 64 12 75 15 11 2 58 13 105 24 112 25 291 71 310 78 18 8 15
6 69 22 66 19 207 66 286 96 39 15 92 35 118 45 26 9 53 22 60 29 6 6 17 11
24 11 7 0 61 23 120 51 365 177 635 378 815 610 77 99 159 261 184 364 15 63
25 175 22 236 -3 50 -1 76 6 76 6 0 30 6 54 12 50 14 85 45 78 69 -7 25 24 57
69 73 56 19 95 47 95 68 0 10 -7 34 -15 54 -31 76 -29 89 26 152 47 54 51 62
46 97 -4 33 -1 43 25 68 16 17 34 31 39 31 32 5 58 20 64 37 2 10 18 26 35 37
29 19 30 22 26 82 -6 86 -34 144 -89 182 -52 35 -78 78 -83 136 -13 160 -132
195 -185 53 -12 -34 -22 -74 -21 -90 2 -24 -3 -28 -37 -38 -41 -11 -75 -5 -65
12 3 5 6 90 5 187 -1 138 2 186 14 214 17 42 20 93 4 102 -6 4 -34 7 -64 6
-70 0 -87 17 -81 85 3 27 8 60 11 74 10 40 -60 180 -89 180 -3 0 -27 15 -53
33 -27 18 -60 38 -75 45 -36 15 -200 11 -220 -5 -12 -11 -20 -7 -44 18 -67 72
-87 88 -190 148 -60 35 -145 89 -189 119 -150 104 -360 281 -370 312 -3 11
-21 24 -40 30 -19 6 -37 20 -40 31 -4 11 -18 27 -33 37 -15 9 -34 24 -42 32
-23 23 -130 180 -130 191 0 5 -4 9 -9 9 -5 0 -12 8 -15 18 -3 9 -22 35 -42 57
-19 22 -48 56 -64 75 -42 52 -115 132 -192 212 -37 39 -68 72 -68 74 0 2 7 1
16 -3 29 -11 1 27 -84 113 -48 49 -114 133 -165 210 -98 150 -120 176 -174
212 -22 15 -80 64 -129 110 -49 46 -129 106 -179 136 -70 41 -106 71 -160 133
-38 45 -83 86 -98 93 -39 18 -97 79 -115 120 -8 19 -28 71 -44 115 -55 152
-250 449 -378 575 -145 144 -344 279 -412 280 -19 0 -32 -9 -46 -32z m3818
-5068 c0 -11 -2 -20 -5 -20 -2 0 -9 9 -15 20 -9 16 -8 20 5 20 8 0 15 -9 15
-20z"/>
</g>
</svg>
